# xmcd
#
# Track frame offsets: 
#        150
#        18315
#        37250
#        56558
#        73798
#        89202
#        106423
#        120656
#        139015
#        152196
#        169181
#        183786
#        197479
#        213099
#        230136
#        243300
#        258768
#        271392
#        285766
#        303077
#
# Disc length: 4217 seconds
#
# Revision: 0
# Processed by: cddbd v1.5.2PL0 Copyright (c) Steve Scherf et al.
# Submitted via: ExactAudioCopy v0.99pb4
#
DISCID=19107714
DTITLE=Guy Clark - Platinum Collection, The
DYEAR=2008
DGENRE=Country
TTITLE0=The Houston Kid
TTITLE1=Fool On The Roof
TTITLE2=Fools For Each Other
TTITLE3=Voila, An American Dream
TTITLE4=One Paper Kid
TTITLE5=In The Jailhouse Now
TTITLE6=Comfort And Crazy
TTITLE7=Don't You Take It Too Bad
TTITLE8=Must Be My Baby
TTITLE9=New Cut Road
TTITLE10=Rita Ballou
TTITLE11=Heartbroke
TTITLE12=Who Do You Think You Are
TTITLE13=The South Coast Of Texas
TTITLE14=She's Crazy For Leavin'
TTITLE15=Lone Star Hotel
TTITLE16=Baton Rouge
TTITLE17=The Partner Nobody Chose
TTITLE18=Ramblin' Jack And Mahan
TTITLE19=Too Much
EXTD=
EXTT0=
EXTT1=
EXTT2=
EXTT3=
EXTT4=
EXTT5=
EXTT6=
EXTT7=
EXTT8=
EXTT9=
EXTT10=
EXTT11=
EXTT12=
EXTT13=
EXTT14=
EXTT15=
EXTT16=
EXTT17=
EXTT18=
EXTT19=
PLAYORDER=
